<?xml version="1.0" encoding="iso-8859-1"?>
<!-- Generator: Adobe Illustrator 19.0.0, SVG Export Plug-In . SVG Version: 6.00 Build 0)  -->
<svg version="1.1" id="Capa_1" xmlns="http://www.w3.org/2000/svg" xmlns:xlink="http://www.w3.org/1999/xlink" x="0px" y="0px"
	 viewBox="0 0 496 496" style="enable-background:new 0 0 496 496;" xml:space="preserve">
<path style="fill:#D3A06C;" d="M456,208V80c0-39.768-32.232-72-72-72l0,0c-39.768,0-72,32.232-72,72v128H456z"/>
<path style="fill:#B27946;" d="M384,8c-2.704,0-5.368,0.176-8,0.472c35.992,3.984,64,34.472,64,71.528v128h16V80
	C456,40.232,423.768,8,384,8z"/>
<path style="fill:#ECECEC;" d="M408,192l54.272,10.856c14.96,2.992,25.728,16.12,25.728,31.376V248H280v-13.768
	c0-15.256,10.768-28.384,25.728-31.376L360,192H408z"/>
<path style="fill:#92E0C0;" d="M136,192l54.272,10.856c14.96,2.992,25.728,16.12,25.728,31.376V248H8v-13.768
	c0-15.256,10.768-28.384,25.728-31.376L88,192H136z"/>
<path style="fill:#48C397;" d="M192,248h24v-13.768c0-15.256-10.768-28.384-25.728-31.376L136,192h-8l50.696,28.968
	c3.416,1.952,5.992,5.096,7.24,8.832L192,248z"/>
<path style="fill:#B6C1CE;" d="M464,248h24v-13.768c0-15.256-10.768-28.384-25.728-31.376L408,192h-8l50.696,28.968
	c3.416,1.952,5.992,5.096,7.24,8.832L464,248z"/>
<path style="fill:#D3A06C;" d="M40,120V80c0-39.768,32.232-72,72-72l0,0c39.768,0,72,32.232,72,72v40H40z"/>
<path style="fill:#B27946;" d="M112,8c-2.704,0-5.368,0.176-8,0.472c35.992,3.984,64,34.472,64,71.528v40h16V80
	C184,40.232,151.768,8,112,8z"/>
<g>
	<polygon style="fill:#F9E0A6;" points="136,168 136,192 112,216 88,192 88,168 	"/>
	<polygon style="fill:#F9E0A6;" points="408,168 408,192 384,216 360,192 360,168 	"/>
</g>
<circle style="fill:#FEA82F;" cx="248" cy="392" r="96"/>
<path style="fill:#FF8031;" d="M248,472c-50.32,0-91.52-38.736-95.6-88c-0.216,2.648-0.4,5.296-0.4,8c0,53.016,42.984,96,96,96
	s96-42.984,96-96c0-2.704-0.184-5.352-0.4-8C339.52,433.264,298.32,472,248,472z"/>
<g>
	<path style="fill:#F9E0A6;" d="M424,96h8c13.256,0,24,10.744,24,24l0,0c0,13.256-10.744,24-24,24h-8V96z"/>
	<path style="fill:#F9E0A6;" d="M344,96h-8c-13.256,0-24,10.744-24,24l0,0c0,13.256,10.744,24,24,24h8V96z"/>
	<path style="fill:#F9E0A6;" d="M152,96h8c13.256,0,24,10.744,24,24l0,0c0,13.256-10.744,24-24,24h-8V96z"/>
	<path style="fill:#F9E0A6;" d="M72,96h-8c-13.256,0-24,10.744-24,24l0,0c0,13.256,10.744,24,24,24h8V96z"/>
	<path style="fill:#F9E0A6;" d="M112,176L112,176c-26.512,0-48-21.488-48-48V96c0-8.84,7.16-16,16-16h64c8.84,0,16,7.16,16,16v32
		C160,154.512,138.512,176,112,176z"/>
</g>
<path style="fill:#EABD8C;" d="M144,80v48c0,23.776-17.304,43.464-40,47.28c9.568,1.608,19.864,1.104,31.704-7.648
	C151.4,156.032,160,137.12,160,117.608V96C160,87.16,152.84,80,144,80L144,80z"/>
<path style="fill:#F9E0A6;" d="M384,176L384,176c-26.512,0-48-21.488-48-48V88l0,0c15.368,0,30.104-6.104,40.968-16.968L384,64
	l7.032,7.032C401.896,81.896,416.632,88,432,88l0,0v40C432,154.512,410.512,176,384,176z"/>
<path style="fill:#EABD8C;" d="M416,88v40c0,23.776-17.304,43.464-40,47.28l0,0c2.608,0.44,5.264,0.72,8,0.72
	c26.512,0,48-21.488,48-48V88c-5.464,0-10.84-0.808-16-2.288C416,86.272,416,88,416,88z"/>
<path d="M248,352c8.824,0,16,7.176,16,16h16c0-14.864-10.24-27.288-24-30.864V320h-16v17.136c-13.76,3.576-24,16-24,30.864
	c0,17.648,14.352,32,32,32c8.824,0,16,7.176,16,16s-7.176,16-16,16s-16-7.176-16-16h-16c0,14.864,10.24,27.288,24,30.864V464h16
	v-17.136c13.76-3.576,24-16,24-30.864c0-17.648-14.352-32-32-32c-8.824,0-16-7.176-16-16S239.176,352,248,352z"/>
<path d="M464,195.056V80c0-44.112-35.888-80-80-80s-80,35.888-80,80v115.056c-18.544,3.792-32,20.232-32,39.176V256h112v120
	c0,4.408-3.592,8-8,8h-24.408c-4.104-53.608-48.944-96-103.592-96s-99.488,42.392-103.592,96H120c-4.408,0-8-3.592-8-8V256h112
	v-21.768c0-19-13.52-35.496-32.152-39.224L144,185.44v-11.552c8.008-5.6,14.456-13.24,18.648-22.16
	C179.04,150.36,192,136.736,192,120V80c0-44.112-35.888-80-80-80S32,35.888,32,80v40c0,16.736,12.96,30.36,29.352,31.728
	c4.2,8.92,10.64,16.56,18.648,22.16v11.552l-47.848,9.568C13.52,198.736,0,215.232,0,234.232V256h96v120c0,13.232,10.768,24,24,24
	h24.408c4.104,53.608,48.944,96,103.592,96c24.944,0,49.072-8.968,67.936-25.256l-10.456-12.112C289.52,472.416,269.104,480,248,480
	c-48.52,0-88-39.48-88-88s39.48-88,88-88s88,39.48,88,88c0,20.288-6.704,39.344-19.4,55.12l12.472,10.032
	c13.112-16.304,20.968-36.344,22.584-57.152H376c13.232,0,24-10.768,24-24V256h96v-21.768C496,215.288,482.544,198.848,464,195.056z
	 M167.672,133.952c0.208-1.96,0.328-3.944,0.328-5.952v-21.776c4.76,2.776,8,7.88,8,13.776
	C176,126.032,172.608,131.224,167.672,133.952z M112,16c35.288,0,64,28.712,64,64v12.448c-2.848-1.664-5.92-2.984-9.24-3.704
	C163.664,79.072,154.688,72,144,72H80c-10.688,0-19.664,7.072-22.76,16.752c-3.32,0.72-6.392,2.04-9.24,3.696V80
	C48,44.712,76.712,16,112,16z M48,120c0-5.896,3.24-11,8-13.776V128c0,2.008,0.12,3.992,0.328,5.952
	C51.392,131.224,48,126.032,48,120z M72,128V96c0-4.408,3.592-8,8-8h64c4.408,0,8,3.592,8,8v32c0,22.056-17.944,40-40,40
	S72,150.056,72,128z M112,184c5.56,0,10.928-0.84,16-2.36v7.048l-16,16l-16-16v-7.048C101.072,183.16,106.44,184,112,184z
	 M16,234.232c0-11.4,8.112-21.296,19.296-23.536l50.08-10.016L112,227.312l26.632-26.632l50.08,10.016
	c11.176,2.24,19.288,12.136,19.288,23.536V240H16V234.232z M352,185.44l-32,6.4v-44.296c3.992,2.328,8.504,3.776,13.352,4.184
	c4.2,8.92,10.64,16.56,18.648,22.16V185.44z M328.328,133.952C323.392,131.224,320,126.032,320,120c0-5.896,3.24-11,8-13.776V128
	C328,130.008,328.12,131.992,328.328,133.952z M384,168c-22.056,0-40-17.944-40-40V95.52c14.584-1.752,28.08-8.288,38.624-18.832
	L384,75.312l1.376,1.376C395.92,87.232,409.416,93.768,424,95.52V128C424,150.056,406.056,168,384,168z M368,181.64
	c5.072,1.52,10.44,2.36,16,2.36s10.928-0.84,16-2.36v7.048l-16,16l-16-16V181.64z M416,173.888c8.008-5.6,14.456-13.24,18.648-22.16
	c4.848-0.408,9.36-1.856,13.352-4.184v44.296l-32-6.4V173.888z M440,128v-21.776c4.76,2.776,8,7.88,8,13.776
	c0,6.032-3.392,11.224-8.328,13.952C439.88,131.992,440,130.008,440,128z M384,16c35.288,0,64,28.712,64,64v12.448
	c-2.48-1.448-5.152-2.576-8-3.312V80h-8c-13.336,0-25.88-5.192-35.312-14.624L384,52.688l-12.688,12.688
	C361.88,74.808,349.336,80,336,80h-8v9.136c-2.848,0.744-5.52,1.864-8,3.312V80C320,44.712,348.712,16,384,16z M480,240H288v-5.768
	c0-11.4,8.112-21.296,19.296-23.536l50.08-10.016L384,227.312l26.632-26.632l50.08,10.016c11.176,2.24,19.288,12.136,19.288,23.536
	V240z"/>
<rect x="304" y="384" width="16" height="16"/>
<rect x="176" y="384" width="16" height="16"/>
<rect x="368" y="416" width="16" height="16"/>
<rect x="400" y="416" width="16" height="16"/>
<rect x="432" y="416" width="16" height="16"/>
<rect x="48" y="416" width="16" height="16"/>
<rect x="80" y="416" width="16" height="16"/>
<rect x="112" y="416" width="16" height="16"/>
<g>
</g>
<g>
</g>
<g>
</g>
<g>
</g>
<g>
</g>
<g>
</g>
<g>
</g>
<g>
</g>
<g>
</g>
<g>
</g>
<g>
</g>
<g>
</g>
<g>
</g>
<g>
</g>
<g>
</g>
</svg>
