<svg id="_x33_0" enable-background="new 0 0 64 64" height="512" viewBox="0 0 64 64" width="512" xmlns="http://www.w3.org/2000/svg"><g><circle cx="28" cy="16" r="1"/><circle cx="36" cy="16" r="1"/><path d="m33 23h-4v2h4c2.206 0 4-1.794 4-4h-2c0 1.103-.897 2-2 2z"/><path d="m31 15h2v4h-2z"/><path d="m5 43h2v2h-2z"/><path d="m9 43h6v2h-6z"/><path d="m5 47h10v2h-10z"/><path d="m5 51h10v2h-10z"/><path d="m51.707 52.293-1.414 1.414 3.79 3.79 8.698-10.872-1.562-1.25-7.302 9.128z"/><path d="m59 59h-10v-10h6v-2h-8v6h-10v-1c0-.507-.077-1.004-.223-1.479 10.952-2.221 19.223-11.923 19.223-23.521 0-9.056-4.991-17.209-13.035-21.346-1.997-2.811-5.271-4.654-8.974-4.654h-3.606c-2.922 0-5.562 1.406-7.219 3.688-9.08 3.6-15.166 12.524-15.166 22.312 0 4.251 1.106 8.362 3.212 12h-8.212c-1.103 0-2 .897-2 2v18c0 1.103.897 2 2 2h14c1.103 0 2-.897 2-2v-4h8v5c0 1.654 1.346 3 3 3h4c1.654 0 3-1.346 3-3v-5h10v6h14v-8h-2zm-24-7v1h-6v-1c0-.408.088-.805.245-1.174.909.103 1.826.174 2.755.174.933 0 1.853-.059 2.759-.163.154.366.241.758.241 1.163zm19-25c0 12.131-9.869 22-22 22-4.731 0-9.211-1.482-13-4.267v-2.565c3.5 3.004 8.037 4.832 13 4.832 11.028 0 20-8.972 20-20 0-5.878-2.553-11.387-7.01-15.198-.019-.997-.169-1.961-.437-2.877 5.894 4.078 9.447 10.756 9.447 18.075zm-31-6c-1.103 0-2-.897-2-2s.897-2 2-2zm-3.758-6.689.481 2.407c-.453.648-.723 1.433-.723 2.282 0 2.206 1.794 4 4 4h.08c.37 2.567 2.133 4.683 4.499 5.56l-.386 1.546c-4.349.699-7.98 3.736-9.467 7.817-2.327-3.034-3.726-6.814-3.726-10.923 0-4.801 1.894-9.328 5.242-12.689zm21.758 2.689c1.103 0 2 .897 2 2s-.897 2-2 2zm-.08 6h.08c2.206 0 4-1.794 4-4 0-.849-.27-1.634-.724-2.283l.481-2.407c3.349 3.362 5.243 7.888 5.243 12.69 0 4.109-1.399 7.889-3.726 10.922-1.487-4.08-5.118-7.118-9.467-7.817l-.386-1.546c2.366-.876 4.129-2.992 4.499-5.559zm-10.92 6h4c.156 0 .31-.013.463-.023l.404 1.617-2.915 2.156-2.823-2.147.407-1.627c.154.011.308.024.464.024zm6.756 3.119-.502 2.51-2.267-.897 2.279-1.686c.164.024.329.043.49.073zm-4.533 4.881h-.558l-.531-1.593.815-.33.809.32zm-2.283-3.268-2.196.889-.5-2.501c.159-.03.321-.049.482-.071zm-4.621-1.038.937 4.685 3.02-1.221.629 1.885-1.597 6.572c-3.483-.729-6.601-2.466-9.029-4.894.759-3.208 3.056-5.811 6.04-7.027zm6.411 6.306h.438l1.52 5.914c-.556.053-1.118.086-1.688.086-.576 0-1.144-.033-1.707-.086zm3.948 5.62-1.692-6.583.634-1.903 3.125 1.237.935-4.677c2.984 1.216 5.281 3.819 6.041 7.028-2.431 2.432-5.553 4.17-9.043 4.898zm3.322-22.62c0 2.757-2.243 5-5 5h-4c-2.757 0-5-2.243-5-5v-8c0-1.654 1.346-3 3-3h.532c1.099 1.227 2.695 2 4.468 2h5c.551 0 1 .449 1 1zm-8.615-19h3.606c4.967 0 9.009 4.042 9.009 9.009 0 .593-.059 1.187-.175 1.767l-.306 1.528c-.469-.194-.981-.304-1.519-.304v-1c0-1.654-1.346-3-3-3h-5c-2.206 0-4-1.794-4-4h-2c0 .716.126 1.404.357 2.041-2.454.316-4.357 2.42-4.357 4.959v1c-.538 0-1.05.11-1.52.304l-.377-1.888c-.068-.342-.103-.692-.103-1.041 0-1.779.883-3.43 2.363-4.416l.45-.3.116-.289c1.062-2.654 3.596-4.37 6.456-4.37zm-20.385 24c0-7.534 3.938-14.504 10.127-18.503-.616.981-.994 2.101-1.09 3.282-4.474 3.813-7.037 9.331-7.037 15.221 0 4.505 1.515 8.653 4.038 12h-2.465c-2.331-3.572-3.573-7.706-3.573-12zm-7 32v-18h14l.001 18zm16-6v-5.821c2.526 1.635 5.306 2.744 8.228 3.331-.149.478-.228.979-.228 1.49v1zm16 7c0 .551-.449 1-1 1h-4c-.551 0-1-.449-1-1v-5h6z"/><path d="m5 55h10v2h-10z"/></g></svg>