<svg id="Layer_3" enable-background="new 0 0 64 64" height="512" viewBox="0 0 64 64" width="512" xmlns="http://www.w3.org/2000/svg"><g><path d="m56 57.055h-2v-30.055h1c.553 0 1-.448 1-1v-4c0-.552-.447-1-1-1h-26v-13.945h1c.553 0 1-.448 1-1v-4c0-.552-.447-1-1-1h-28c-.553 0-1 .448-1 1v4c0 .552.447 1 1 1h1v50h-1c-.553 0-1 .448-1 1v4c0 .552.447 1 1 1h54c.553 0 1-.448 1-1v-4c0-.553-.447-1-1-1zm-4 0h-7v-3c0-2.757-2.243-5-5-5s-5 2.243-5 5v3h-6v-30.055h23zm-9 0h-6v-3c0-1.654 1.346-3 3-3s3 1.346 3 3zm11-34.055v2h-25v-2zm-51-19.945h26v2h-26zm2 4h22v50h-6v-3c0-2.757-2.243-5-5-5s-5 2.243-5 5v3h-6zm14 50h-6v-3c0-1.654 1.346-3 3-3s3 1.346 3 3zm36 4h-52v-2h52z"/><path d="m8 17.055h6c.553 0 1-.448 1-1v-6c0-.552-.447-1-1-1h-6c-.553 0-1 .448-1 1v6c0 .552.447 1 1 1zm1-6h4v4h-4z"/><path d="m18 17.055h6c.553 0 1-.448 1-1v-6c0-.552-.447-1-1-1h-6c-.553 0-1 .448-1 1v6c0 .552.447 1 1 1zm1-6h4v4h-4z"/><path d="m8 27.055h6c.553 0 1-.448 1-1v-6c0-.552-.447-1-1-1h-6c-.553 0-1 .448-1 1v6c0 .552.447 1 1 1zm1-6h4v4h-4z"/><path d="m18 27.055h6c.553 0 1-.448 1-1v-6c0-.552-.447-1-1-1h-6c-.553 0-1 .448-1 1v6c0 .552.447 1 1 1zm1-6h4v4h-4z"/><path d="m8 37.055h6c.553 0 1-.448 1-1v-6c0-.552-.447-1-1-1h-6c-.553 0-1 .448-1 1v6c0 .552.447 1 1 1zm1-6h4v4h-4z"/><path d="m18 37.055h6c.553 0 1-.448 1-1v-6c0-.552-.447-1-1-1h-6c-.553 0-1 .448-1 1v6c0 .552.447 1 1 1zm1-6h4v4h-4z"/><path d="m14 47.055c.553 0 1-.448 1-1v-6c0-.552-.447-1-1-1h-6c-.553 0-1 .448-1 1v6c0 .552.447 1 1 1zm-5-6h4v4h-4z"/><path d="m18 47.055h6c.553 0 1-.448 1-1v-6c0-.552-.447-1-1-1h-6c-.553 0-1 .448-1 1v6c0 .552.447 1 1 1zm1-6h4v4h-4z"/><path d="m32 37h6c.553 0 1-.448 1-1v-6c0-.552-.447-1-1-1h-6c-.553 0-1 .448-1 1v6c0 .552.447 1 1 1zm1-6h4v4h-4z"/><path d="m43 37h6c.553 0 1-.448 1-1v-6c0-.552-.447-1-1-1h-6c-.553 0-1 .448-1 1v6c0 .552.447 1 1 1zm1-6h4v4h-4z"/><path d="m32 47h6c.553 0 1-.448 1-1v-6c0-.552-.447-1-1-1h-6c-.553 0-1 .448-1 1v6c0 .552.447 1 1 1zm1-6h4v4h-4z"/><path d="m43 47h6c.553 0 1-.448 1-1v-6c0-.552-.447-1-1-1h-6c-.553 0-1 .448-1 1v6c0 .552.447 1 1 1zm1-6h4v4h-4z"/><path d="m61.414 2c-1.291-1.289-3.537-1.29-4.828 0l-.586.586-.586-.586c-1.291-1.289-3.537-1.29-4.828 0-.939.939-1.468 2.167-1.552 3.481-.256.142-.5.307-.713.519l-.586.586-.586-.586c-.045-.046-.101-.078-.149-.121v-.05c0-1.447-.563-2.807-1.586-3.829-1.291-1.289-3.537-1.29-4.828 0l-.586.586-.586-.586c-1.291-1.289-3.537-1.29-4.828 0-1.023 1.022-1.586 2.382-1.586 3.829v.171c0 1.557.606 3.021 1.707 4.121l4.586 4.586c.195.195.451.293.707.293s.512-.098.707-.293l1.205-1.205c.163.215.336.425.53.619l4.586 4.586c.196.195.451.293.707.293s.512-.098.707-.293l4.586-4.586c.285-.285.536-.596.753-.926l1.512 1.512c.195.195.451.293.707.293s.512-.098.707-.293l4.586-4.586c1.101-1.1 1.707-2.564 1.707-4.121v-.171c0-1.447-.563-2.807-1.586-3.829zm-21.414 10.586-3.879-3.879c-.723-.723-1.121-1.685-1.121-2.707v-.171c0-.912.355-1.77 1-2.414.535-.535 1.465-.535 2 0l1.293 1.293c.391.391 1.023.391 1.414 0l1.293-1.293c.535-.535 1.465-.535 2 0 .456.456.758 1.021.901 1.634-.939-.044-1.894.265-2.58.951-1.022 1.022-1.586 2.382-1.586 3.829v.171c0 .556.081 1.1.231 1.62zm12.735-2.586c0 1.022-.398 1.984-1.121 2.707l-3.879 3.879-3.879-3.879c-.723-.723-1.121-1.685-1.121-2.707v-.171c0-.912.355-1.77 1-2.414.268-.268.622-.415 1-.415s.732.147 1 .414l1.293 1.293c.391.391 1.023.391 1.414 0l1.293-1.292c.535-.535 1.465-.535 2 0 .645.645 1 1.502 1 2.415zm8.265-4c0 1.022-.398 1.984-1.121 2.707l-3.879 3.879-1.389-1.389c.081-.39.125-.79.125-1.197v-.171c0-1.446-.563-2.806-1.586-3.829-.558-.557-1.296-.858-2.056-.934.141-.62.446-1.191.906-1.651.535-.535 1.465-.535 2 0l1.293 1.293c.391.391 1.023.391 1.414 0l1.293-1.293c.535-.535 1.465-.535 2 0 .645.645 1 1.502 1 2.415z"/></g></svg>