<svg id="Layer_1" enable-background="new 0 0 128 128" height="512" viewBox="0 0 128 128" width="512" xmlns="http://www.w3.org/2000/svg"><path d="m93.165 10.472h-53.859c-3.828 0-6.942 3.114-6.942 6.942v97.644c0 3.828 1.957 6.942 5.785 6.942h55.016c3.828 0 6.942-3.114 6.942-6.942v-97.644c0-3.828-3.114-6.942-6.942-6.942z" fill="#e6e7e8"/><path d="m88.537 7h-53.859c-3.195 0-5.785 2.59-5.785 5.785v97.645c0 3.195 2.59 5.785 5.785 5.785h53.859c3.195 0 5.785-2.59 5.785-5.785v-39.89-57.755c0-3.195-2.59-5.785-5.785-5.785z" fill="#0089ef"/><path d="m31.893 110.43v-97.645c0-3.195 2.59-5.785 5.785-5.785h-3c-3.195 0-5.785 2.59-5.785 5.785v97.645c0 3.195 2.59 5.785 5.785 5.785h3c-3.195 0-5.785-2.59-5.785-5.785z" fill="#fff"/><path d="m94.322 44.086c-.552 0-1 .447-1 1v7.811c0 .553.448 1 1 1s1-.447 1-1v-7.811c0-.553-.447-1-1-1z" fill="#3a2c60"/><path d="m88.537 6h-53.859c-3.741 0-6.785 3.044-6.785 6.785v97.645c0 3.741 3.044 6.785 6.785 6.785h53.859c3.741 0 6.785-3.044 6.785-6.785v-39.89-12.727c0-.553-.448-1-1-1s-1 .447-1 1v12.727 39.89c0 2.639-2.146 4.785-4.785 4.785h-53.859c-2.639 0-4.785-2.146-4.785-4.785v-97.645c0-2.639 2.146-4.785 4.785-4.785h53.859c2.639 0 4.785 2.146 4.785 4.785v27.865c0 .553.448 1 1 1s1-.447 1-1v-27.865c0-3.741-3.044-6.785-6.785-6.785z" fill="#3a2c60"/><path d="m86.542 14.675h-49.86c-1.105 0-2 .896-2 2v83.773c0 1.105.895 2 2 2h49.86c1.105 0 2-.895 2-2v-83.773c0-1.104-.896-2-2-2z" fill="#d4fbff"/><path d="m67.906 9.963h-12.597c-.515 0-.933.418-.933.933v.438c0 .515.418.933.933.933h12.596c.515 0 .933-.418.933-.933v-.438c.001-.515-.417-.933-.932-.933z" fill="#6dc9f7"/><path d="m71.464 9.963c-.636 0-1.152.516-1.152 1.152s.516 1.152 1.152 1.152 1.152-.516 1.152-1.152-.516-1.152-1.152-1.152z" fill="#6dc9f7"/><path d="m61.608 105.734c-1.677 0-3.037 1.36-3.037 3.037s1.36 3.037 3.037 3.037 3.037-1.36 3.037-3.037-1.36-3.037-3.037-3.037z" fill="#6dc9f7"/><g fill="#fff"><path d="m77.501 14.675h-11.08l-31.629 86.402c.265.794 1.006 1.371 1.889 1.371h8.689z"/><path d="m49.354 102.448h7.033l31.81-86.895c-.36-.529-.966-.877-1.655-.877h-5.057z"/><path d="m63.696 102.448 24.846-67.861v-8.898l-28.097 76.759z"/></g></svg>