<?xml version="1.0"?>
<svg xmlns="http://www.w3.org/2000/svg" width="512" height="512" viewBox="0 0 128 128"><g><path d="M127.014,62.372l-15.9-6.272A17.27,17.27,0,0,0,102.9,36.276l6.811-15.682a1.751,1.751,0,0,0-2.3-2.3L91.724,25.1A17.27,17.27,0,0,0,71.9,16.889L65.628.986a1.75,1.75,0,0,0-3.256,0L56.1,16.889a17.167,17.167,0,0,0-4.7-.661A17.341,17.341,0,0,0,36.276,25.1L20.594,18.291a1.751,1.751,0,0,0-2.3,2.3L25.1,36.276A17.275,17.275,0,0,0,16.888,56.1L.986,62.372a1.75,1.75,0,0,0,0,3.256l15.9,6.272A17.276,17.276,0,0,0,25.1,91.725l-6.811,15.681a1.75,1.75,0,0,0,2.3,2.3L36.276,102.9A17.341,17.341,0,0,0,51.4,111.772a17.167,17.167,0,0,0,4.7-.661l6.272,15.9a1.75,1.75,0,0,0,3.256,0l6.272-15.9A17.27,17.27,0,0,0,91.724,102.9l15.682,6.811a1.751,1.751,0,0,0,2.3-2.3L102.9,91.724A17.27,17.27,0,0,0,111.111,71.9l15.9-6.272a1.75,1.75,0,0,0,0-3.256ZM108.272,51.4a13.7,13.7,0,0,1-.432,3.411l-1.519-.6-9.572-3.776L101.5,39.5A13.848,13.848,0,0,1,108.272,51.4ZM87.344,64.7,92.1,75.638,81,80.014a1.747,1.747,0,0,0-.986.985L75.637,92.1,64.7,87.344a1.742,1.742,0,0,0-1.394,0L52.363,92.1,47.986,81A1.747,1.747,0,0,0,47,80.014L35.905,75.638,40.656,64.7a1.75,1.75,0,0,0,0-1.394L35.905,52.362,47,47.986A1.747,1.747,0,0,0,47.986,47l4.377-11.1L63.3,40.656a1.742,1.742,0,0,0,1.394,0l10.94-4.751L80.014,47a1.747,1.747,0,0,0,.986.985l11.1,4.376L87.344,63.3A1.75,1.75,0,0,0,87.344,64.7Zm11.689-28.31,0,.008L93.5,49.124l-.012.026-10.5-4.141-4.14-10.5.026-.012,12.729-5.527.008,0,13.117-5.7ZM76.6,19.728A13.852,13.852,0,0,1,88.5,26.5l-10.94,4.751L73.19,20.16A13.7,13.7,0,0,1,76.6,19.728ZM64,6.4l7.324,18.571,3.028,7.678L64,37.143l-10.352-4.5,3.028-7.678ZM51.4,19.728a13.7,13.7,0,0,1,3.411.432L50.436,31.251,39.5,26.5A13.848,13.848,0,0,1,51.4,19.728ZM36.387,28.967l.008,0L49.124,34.5l.026.012-4.14,10.5L34.51,49.15l-.012-.026L28.971,36.4l0-.008L23.27,23.27ZM20.16,54.81a13.678,13.678,0,0,1-.432-3.411A13.848,13.848,0,0,1,26.5,39.5l4.75,10.938-9.572,3.776Zm4.808,1.866,7.679-3.028L37.143,64l-4.5,10.352-7.679-3.028L6.4,64ZM19.728,76.6a13.678,13.678,0,0,1,.432-3.411l1.519.6,9.572,3.776L26.5,88.5A13.851,13.851,0,0,1,19.728,76.6ZM34.51,78.85l10.5,4.141,4.14,10.5-.026.012L36.4,99.029l-.008,0-13.117,5.7ZM51.4,108.272A13.848,13.848,0,0,1,39.5,101.5l10.939-4.75L54.81,107.84A13.7,13.7,0,0,1,51.4,108.272ZM64,121.6l-7.324-18.571-3.028-7.678L64,90.857l10.352,4.5-3.028,7.678Zm12.6-13.331a13.7,13.7,0,0,1-3.411-.432l4.374-11.091L88.5,101.5A13.852,13.852,0,0,1,76.6,108.272Zm15.012-9.239-.008,0L78.876,93.5l-.026-.012,4.14-10.5,10.5-4.141.012.026,5.527,12.729,0,.008,5.7,13.117ZM107.84,73.19a13.7,13.7,0,0,1,.432,3.411A13.848,13.848,0,0,1,101.5,88.5l-4.75-10.938,9.572-3.776Zm-4.808-1.866-7.679,3.028L90.857,64l4.5-10.352,7.679,3.028L121.6,64Z"/><path d="M64,48.5A15.5,15.5,0,1,0,79.5,64,15.517,15.517,0,0,0,64,48.5ZM64,76A12,12,0,1,1,76,64,12.013,12.013,0,0,1,64,76Z"/><path d="M64,56.5A7.5,7.5,0,1,0,71.5,64,7.508,7.508,0,0,0,64,56.5ZM64,68a4,4,0,1,1,4-4A4,4,0,0,1,64,68Z"/></g></svg>
