<svg id="Layer_1" enable-background="new 0 0 512 512" height="512" viewBox="0 0 512 512" width="512" xmlns="http://www.w3.org/2000/svg"><g><path d="m115.726 379.078c0-4.142-3.358-7.5-7.5-7.5h-21.426c-18.518 0-36.232-7.476-49.88-21.051-13.614-13.541-21.389-31.31-21.893-50.034-.004-.148-.012-.295-.024-.441.304-35.997 26.116-66.886 61.6-73.585 2.04-.385 3.829-1.599 4.941-3.352s1.448-3.888.928-5.898c-2.917-11.263-4.225-22.939-3.888-34.703.568-19.858 6.035-39.497 15.809-56.792 2.038-3.606.766-8.182-2.84-10.22-3.608-2.037-8.182-.766-10.22 2.84-10.969 19.413-17.105 41.455-17.743 63.743-.303 10.592.586 21.127 2.645 31.413-38.811 10.826-66.235 46.335-66.235 87.198 0 .308.019.61.055.908.783 22.331 10.101 43.458 26.288 59.558 16.478 16.39 37.949 25.416 60.458 25.416h21.426c4.141 0 7.499-3.358 7.499-7.5z"/><path d="m447.254 213.92c.806-5.089 1.213-10.223 1.213-15.333 0-54.151-44.055-98.207-98.206-98.207-11.918 0-23.516 2.11-34.563 6.28-25.791-36.85-67.446-58.832-112.657-59.121-.29-.001-.579-.002-.868-.002-37.981 0-74.741 15.946-100.975 43.834-2.838 3.017-2.693 7.764.324 10.602s7.763 2.692 10.602-.324c23.408-24.885 56.188-39.112 90.048-39.112.256 0 .517 0 .773.002 42.203.27 80.933 21.738 103.602 57.428 2.003 3.154 6.023 4.352 9.426 2.811 10.836-4.909 22.371-7.397 34.287-7.397 45.88 0 83.206 37.326 83.206 83.207 0 6.388-.752 12.823-2.235 19.127-.462 1.965-.112 4.034.97 5.738s2.806 2.9 4.78 3.317c34.739 7.34 59.963 38.373 60.019 73.812-.597 18.649-8.408 36.367-22.004 49.901-13.665 13.603-31.349 21.095-49.793 21.095h-19.833c-4.143 0-7.5 3.358-7.5 7.5s3.357 7.5 7.5 7.5h19.833c22.438 0 43.88-9.043 60.375-25.464 16.351-16.277 25.733-37.653 26.418-60.19.003-.076.004-.152.004-.228 0-40.053-26.821-75.432-64.746-86.776z"/><path d="m363.399 380.349c-.141-.037-.281-.07-.424-.099l-74.139-15.114c-.972-6.623-1.151-13.17-.552-20.14 24.833-20.633 36.919-38.757 36.919-55.342 0-1.799-.073-3.565-.226-5.341-.405-4.133-.634-23-.556-45.883.062-18.102-6.944-35.136-19.727-47.964-12.795-12.841-29.825-19.915-47.952-19.918.003.001-.006 0-.011 0-18.127 0-35.159 7.071-47.957 19.911-12.788 12.83-19.796 29.867-19.734 47.973.079 22.889-.15 41.772-.564 45.994-.145 1.646-.218 3.405-.218 5.228 0 16.56 12.047 34.651 36.784 55.225.573 6.762.366 13.254-.632 19.956l-75.401 15.411c-.141.029-.282.062-.421.099-25.268 6.703-42.915 30.022-42.915 56.709v19.909c0 4.142 3.358 7.5 7.5 7.5h219.143c4.143 0 7.5-3.358 7.5-7.5s-3.357-7.5-7.5-7.5h-211.641v-12.409c0-19.82 12.968-37.125 31.56-42.156l76.004-15.535c.686.746 1.376 1.493 2.078 2.237 7.325 7.812 16.69 12.111 26.343 12.11h.169c9.678 0 19.034-4.291 26.339-12.075.619-.656 1.227-1.315 1.833-1.972l74.757 15.24c18.597 5.028 31.567 22.333 31.567 42.159v12.401h-23.842c-4.143 0-7.5 3.358-7.5 7.5s3.357 7.5 7.5 7.5h31.342c4.143 0 7.5-3.358 7.5-7.5v-19.901c0-26.694-17.652-50.014-42.926-56.713zm-160.14-90.695c0-1.385.054-2.702.154-3.838.564-5.757.691-29.15.628-47.435-.048-14.089 5.406-27.347 15.358-37.332 9.963-9.996 23.22-15.5 37.333-15.5h.008c14.112.002 27.369 5.509 37.33 15.505 9.948 9.984 15.4 23.24 15.353 37.326-.065 19.155.065 41.665.619 47.305.107 1.259.162 2.595.162 3.97 0 8.367-5.894 23.109-33.986 45.839-5.467 4.445-12.355 6.891-19.432 6.891-.021 0-.042 0-.063 0-.02 0-.039 0-.059 0-7.058 0-13.958-2.452-19.448-6.92-28.066-22.706-33.957-37.445-33.957-45.811zm68.983 81.703c-4.451 4.743-9.924 7.353-15.454 7.353-.03 0-.059 0-.09 0-5.501 0-10.983-2.616-15.455-7.386-.768-.814-1.526-1.63-2.27-2.441.82-4.908 1.272-9.702 1.374-14.52 5.177 1.975 10.701 3.023 16.287 3.023h.181c5.536 0 11.002-1.024 16.128-2.954.075 4.95.51 9.816 1.328 14.746-.665.723-1.342 1.451-2.029 2.179z"/></g></svg>