<svg id="color" enable-background="new 0 0 24 24" height="512" viewBox="0 0 24 24" width="512" xmlns="http://www.w3.org/2000/svg"><g fill="#607d8b"><path d="m22.272 10.272c-.414 0-.75.336-.75.75 0 4.485-3.122 8.246-7.304 9.25v-.935c0-.666-.807-1.003-1.28-.53l-1.957 1.956c-.293.293-.293.768 0 1.061l1.957 1.956c.469.469 1.28.141 1.28-.53v-1.431c5.018-1.029 8.804-5.479 8.804-10.797 0-.414-.336-.75-.75-.75z"/><path d="m8.824 19.989c-3.796-1.33-6.346-4.933-6.346-8.967 0-1.142.206-2.251.593-3.293l.899.518c.575.333 1.272-.196 1.1-.844l-.76-2.834c-.108-.398-.51-.634-.92-.53l-2.835.759c-.645.173-.756 1.042-.18 1.374l1.379.796c-.508 1.276-.775 2.644-.775 4.054 0 4.669 2.953 8.842 7.35 10.383.397.137.82-.073.956-.46.136-.391-.07-.819-.461-.956z"/><path d="m23.056 4.917-1.613.432c-1.963-3.243-5.541-5.349-9.443-5.349-2.512 0-4.866.826-6.809 2.386-.323.26-.374.732-.115 1.055.261.324.732.374 1.055.115 1.674-1.345 3.703-2.056 5.869-2.056 3.222 0 6.185 1.664 7.921 4.256l-.874.234c-.644.173-.758 1.04-.181 1.374l2.541 1.468c.173.1.376.126.569.075.191-.052.355-.177.455-.35l1.469-2.541c.331-.575-.194-1.271-.844-1.099z"/></g><path d="m12 19.744-1.02 1.019c-.293.293-.293.768 0 1.061l1.02 1.02z" fill="#546d79"/><path d="m3.585 4.015c-.064 0-.129.008-.194.024l-2.836.759c-.644.173-.757 1.042-.18 1.374l1.379.796c-.508 1.276-.775 2.645-.775 4.055 0 4.669 2.954 8.841 7.35 10.382.083.028.166.042.248.042.312 0 .6-.195.708-.502.137-.391-.069-.818-.46-.956-3.796-1.33-6.346-4.934-6.346-8.966 0-1.143.206-2.251.593-3.294l.898.518c.122.071.25.103.374.103.458 0 .861-.437.726-.947l-.76-2.834c-.091-.335-.389-.554-.725-.554z" fill="#546d79"/><path d="m12 0c-2.512 0-4.866.825-6.809 2.387-.323.259-.374.731-.115 1.053.149.185.366.281.585.281.165 0 .331-.054.469-.165 1.675-1.345 3.704-2.056 5.87-2.056z" fill="#546d79"/><path d="m18.855 10.545c-4.446-6.06-9.263-6.06-13.709 0-.194.265-.194.625 0 .89 2.223 3.03 4.528 4.565 6.854 4.565s4.631-1.535 6.854-4.565c.194-.265.194-.625.001-.89z" fill="#2196f3"/><path d="m12 13.5c-1.381 0-2.5-1.119-2.5-2.5s1.119-2.5 2.5-2.5 2.5 1.119 2.5 2.5-1.119 2.5-2.5 2.5z" fill="#fff"/><path d="m12 6c-2.316 0-4.631 1.515-6.854 4.545-.194.265-.194.625 0 .89 2.223 3.03 4.528 4.565 6.854 4.565v-2.5c-1.381 0-2.5-1.119-2.5-2.5s1.119-2.5 2.5-2.5z" fill="#1d83d4"/><path d="m12 8.5c-1.381 0-2.5 1.119-2.5 2.5s1.119 2.5 2.5 2.5z" fill="#dedede"/></svg>