<svg id="Layer_1" enable-background="new 0 0 511.996 511.996" height="512" viewBox="0 0 511.996 511.996" width="512" xmlns="http://www.w3.org/2000/svg"><g><path d="m263.485 341.398c0-4.142-3.357-7.5-7.5-7.5s-7.5 3.358-7.5 7.5v4.5c0 4.142 3.357 7.5 7.5 7.5s7.5-3.358 7.5-7.5z"/><path d="m263.485 383.398c0-4.142-3.357-7.5-7.5-7.5s-7.5 3.358-7.5 7.5v4.5c0 4.142 3.357 7.5 7.5 7.5s7.5-3.358 7.5-7.5z"/><path d="m263.485 425.398c0-4.142-3.357-7.5-7.5-7.5s-7.5 3.358-7.5 7.5v4.5c0 4.142 3.357 7.5 7.5 7.5s7.5-3.358 7.5-7.5z"/><path d="m255.985 459.898c-4.143 0-7.5 3.358-7.5 7.5v4.5c0 4.142 3.357 7.5 7.5 7.5s7.5-3.358 7.5-7.5v-4.5c0-4.142-3.357-7.5-7.5-7.5z"/><path d="m304.027 382.077c4.143 0 7.5-3.358 7.5-7.5s-3.357-7.5-7.5-7.5h-8.215c-6.498 0-11.785 5.287-11.785 11.786v18.25c0 6.499 5.287 11.786 11.785 11.786h51.429c6.499 0 11.786-5.287 11.786-11.786v-18.25c0-6.499-5.287-11.786-11.786-11.786h-8.214c-4.143 0-7.5 3.358-7.5 7.5s3.357 7.5 7.5 7.5h5v11.821h-45v-11.821z"/><path d="m440.428 419.898c4.143 0 7.5-3.358 7.5-7.5v-37.581c0-29.149-17.963-56.901-43.684-67.487-.049-.02-.098-.04-.146-.059l-100.686-38.993-.016-19.59c17.179-12.574 29.077-31.932 31.735-54.099 19.51-1.709 34.036-17.264 34.036-35.4 0-8.915-3.391-17.628-9.118-24.295v-33.178c0-56.086-45.63-101.716-101.716-101.716h-4.671c-56.086 0-101.716 45.63-101.716 101.717v34.097c-5.756 6.601-9.117 14.978-9.117 23.471 0 17.853 14.26 33.628 34.031 35.313 2.587 21.769 14.057 41.242 31.681 54.002v19.365c-11.764 4.595-90.991 35.537-100.662 39.314-.042.017-.084.034-.126.051-21.04 8.659-43.685 33.472-43.685 67.487v116.67c0 11.309 9.2 20.509 20.51 20.509h342.841c11.309 0 20.509-9.2 20.509-20.509v-44.089c0-4.142-3.357-7.5-7.5-7.5s-7.5 3.358-7.5 7.5v44.089c0 3.038-2.472 5.509-5.509 5.509h-39.699v-129.839c0-4.142-3.357-7.5-7.5-7.5s-7.5 3.358-7.5 7.5v129.839h-233.444v-129.839c0-4.142-3.357-7.5-7.5-7.5s-7.5 3.358-7.5 7.5v129.839h-39.698c-3.038 0-5.51-2.471-5.51-5.509v-116.67c0-28.912 20.511-47.873 34.336-53.592l62.624-24.458 37.82 31.362c6.653 5.521 16.6 4.062 21.412-3.066l8.245-12.21h24.987l8.245 12.21c4.804 7.117 14.751 8.593 21.411 3.067l37.653-31.223 62.805 24.323c17.068 7.063 34.322 27.717 34.322 53.587v37.581c0 4.142 3.357 7.5 7.5 7.5zm-86.261-260.708c0 10.254-8.151 18.514-18.452 20.221v-37.901c1.927-.196 4.176-.774 5.957-1.521 2.328-.972 12.495 7.263 12.495 19.201zm-177.886 20.239c-10.32-1.671-18.452-9.929-18.452-20.144 0-7.144 4.229-13.881 10.196-17.806.001 0 .002-.001.002-.001.431-.283 1.141-.436 1.857-.307 2.782.5 4.722.447 6.396.447v37.811zm-4.339-52.811c-2.759 0-4.996-2.237-4.996-4.996v-19.905c0-47.892 38.824-86.717 86.717-86.717h4.67c47.892 0 86.716 38.824 86.716 86.716v23.423c-3.002-.504-6.278-.199-9.182 1.019-2.728 1.145-7.375-.002-10.179-1.341-6.312-3.015-10.574-9.469-10.57-16.67.003-4.054-2.764-7.585-6.697-8.569h-.001-.001l-.21-.035c-4.057-.676-8.021 1.361-10.01 4.961-7.545 13.657-21.839 22.115-37.449 22.115h-88.808zm19.339 58.552v-43.552h69.469c16.822 0 32.225-7.323 42.741-18.901 3.64 7.453 9.923 13.25 17.223 16.315v46.139c0 35.04-28.529 63.647-63.619 63.684-.022 0-.045.001-.067.001-.021 0-.041-.001-.062-.001-40.851-.037-65.685-32.152-65.685-63.685zm31.798 131.128-31.076-25.77 21.535-8.411 20.912 17.34c-.522.774-10.911 16.161-11.371 16.841zm44.609-28.152c-2.994 2.482-4.829 6.022-5.215 9.707h-12.949c-.379-3.587-2.166-7.178-5.216-9.707l-20.939-17.364c.069-.453.173-1.561.173-2.336v-11.325c20.011 8.603 43.545 9.375 64.862.192l.009 11.198c0 .01.001.019.001.029.004.769.066 1.527.183 2.268zm21.229 28.152c-.459-.68-10.849-16.067-11.371-16.841l20.643-17.116c17.401 6.739 13.253 5.133 21.593 8.362z"/></g></svg>